<mxfile host="app.diagrams.net" modified="2023-06-25T23:20:31.582Z" agent="Mozilla/5.0 (Windows NT 10.0; Win64; x64) AppleWebKit/537.36 (KHTML, like Gecko) Chrome/109.0.0.0 Safari/537.36" etag="Ar-_cF-ZEGZzvxxLPlf3" version="21.4.0" type="google">
  <diagram id="e6LpOqJi-xictnOwmlcW" name="Página-2">
    <mxGraphModel grid="1" page="1" gridSize="10" guides="1" tooltips="1" connect="1" arrows="1" fold="1" pageScale="1" pageWidth="2500" pageHeight="1500" math="0" shadow="0">
      <root>
        <mxCell id="0" />
        <mxCell id="1" parent="0" />
        <mxCell id="F3Zivoe75PWThTTV405F-1" value="ESTUDIANTE" style="swimlane;fontStyle=1;align=center;verticalAlign=top;childLayout=stackLayout;horizontal=1;startSize=26;horizontalStack=0;resizeParent=1;resizeParentMax=0;resizeLast=0;collapsible=1;marginBottom=0;" vertex="1" parent="1">
          <mxGeometry x="-6781" y="-2759" width="190" height="290" as="geometry">
            <mxRectangle x="80" y="80" width="100" height="30" as="alternateBounds" />
          </mxGeometry>
        </mxCell>
        <mxCell id="F3Zivoe75PWThTTV405F-2" value="# Identificación: Int&#xa;# Tipo identificacion: String&#xa;+ Nombre: String&#xa;+ Primer Apellido: String&#xa;+ Segundo Apellido: String&#xa;+ Fecha nacimiento: Date&#xa;+ Edad: Int&#xa;# Número de contacto: Int&#xa;# Dirección: String&#xa;# Sexo: String&#xa;- Nombre EPS: String&#xa;+ Tipo RH: String&#xa;&#xa;" style="text;strokeColor=none;fillColor=none;align=left;verticalAlign=top;spacingLeft=4;spacingRight=4;overflow=hidden;rotatable=0;points=[[0,0.5],[1,0.5]];portConstraint=eastwest;" vertex="1" parent="F3Zivoe75PWThTTV405F-1">
          <mxGeometry y="26" width="190" height="184" as="geometry" />
        </mxCell>
        <mxCell id="F3Zivoe75PWThTTV405F-3" value="" style="line;strokeWidth=1;fillColor=none;align=left;verticalAlign=middle;spacingTop=-1;spacingLeft=3;spacingRight=3;rotatable=0;labelPosition=right;points=[];portConstraint=eastwest;strokeColor=inherit;" vertex="1" parent="F3Zivoe75PWThTTV405F-1">
          <mxGeometry y="210" width="190" height="8" as="geometry" />
        </mxCell>
        <mxCell id="F3Zivoe75PWThTTV405F-4" value="Almacenar (datos)&#xa;Eliminar()&#xa;Modificar()&#xa;Añadir()" style="text;strokeColor=none;fillColor=none;align=left;verticalAlign=top;spacingLeft=4;spacingRight=4;overflow=hidden;rotatable=0;points=[[0,0.5],[1,0.5]];portConstraint=eastwest;" vertex="1" parent="F3Zivoe75PWThTTV405F-1">
          <mxGeometry y="218" width="190" height="72" as="geometry" />
        </mxCell>
        <mxCell id="nxkjfwWEvy5Os_rlGTME-1" value="CURSO" style="swimlane;fontStyle=1;align=center;verticalAlign=top;childLayout=stackLayout;horizontal=1;startSize=26;horizontalStack=0;resizeParent=1;resizeParentMax=0;resizeLast=0;collapsible=1;marginBottom=0;" vertex="1" parent="1">
          <mxGeometry x="-6181" y="-2731" width="140" height="180" as="geometry">
            <mxRectangle x="80" y="80" width="100" height="30" as="alternateBounds" />
          </mxGeometry>
        </mxCell>
        <mxCell id="nxkjfwWEvy5Os_rlGTME-2" value="+ Codigo: Int&#xa;+ Nombre: String&#xa;+ Edad para entrar: Int" style="text;strokeColor=none;fillColor=none;align=left;verticalAlign=top;spacingLeft=4;spacingRight=4;overflow=hidden;rotatable=0;points=[[0,0.5],[1,0.5]];portConstraint=eastwest;" vertex="1" parent="nxkjfwWEvy5Os_rlGTME-1">
          <mxGeometry y="26" width="140" height="74" as="geometry" />
        </mxCell>
        <mxCell id="nxkjfwWEvy5Os_rlGTME-3" value="" style="line;strokeWidth=1;fillColor=none;align=left;verticalAlign=middle;spacingTop=-1;spacingLeft=3;spacingRight=3;rotatable=0;labelPosition=right;points=[];portConstraint=eastwest;strokeColor=inherit;" vertex="1" parent="nxkjfwWEvy5Os_rlGTME-1">
          <mxGeometry y="100" width="140" height="8" as="geometry" />
        </mxCell>
        <mxCell id="nxkjfwWEvy5Os_rlGTME-4" value="Añadir ()&#xa;Eliminar ()&#xa;Modificar ()&#xa;Almacenar (datos)" style="text;strokeColor=none;fillColor=none;align=left;verticalAlign=top;spacingLeft=4;spacingRight=4;overflow=hidden;rotatable=0;points=[[0,0.5],[1,0.5]];portConstraint=eastwest;" vertex="1" parent="nxkjfwWEvy5Os_rlGTME-1">
          <mxGeometry y="108" width="140" height="72" as="geometry" />
        </mxCell>
        <mxCell id="nxkjfwWEvy5Os_rlGTME-5" value="INGRESA" style="edgeStyle=orthogonalEdgeStyle;rounded=0;orthogonalLoop=1;jettySize=auto;html=1;entryX=0;entryY=0.5;entryDx=0;entryDy=0;endArrow=none;endFill=0;startArrow=classic;startFill=1;" edge="1" parent="1" source="F3Zivoe75PWThTTV405F-2" target="nxkjfwWEvy5Os_rlGTME-1">
          <mxGeometry relative="1" as="geometry" />
        </mxCell>
        <mxCell id="C3cM7KqL-mUrDPRyK2Mr-1" value="USUARIOS&#xa;" style="swimlane;fontStyle=1;align=center;verticalAlign=top;childLayout=stackLayout;horizontal=1;startSize=26;horizontalStack=0;resizeParent=1;resizeParentMax=0;resizeLast=0;collapsible=1;marginBottom=0;" vertex="1" parent="1">
          <mxGeometry x="-5861" y="-2399" width="160" height="290" as="geometry">
            <mxRectangle x="80" y="80" width="100" height="30" as="alternateBounds" />
          </mxGeometry>
        </mxCell>
        <mxCell id="C3cM7KqL-mUrDPRyK2Mr-2" value="# Identificación: Int&#xa;# Tipo identificacion: String&#xa;+ Nombre: String&#xa;+ Primer apellido: String&#xa;+ Segundo apellido: String&#xa;- Fecha nacimiento: Int&#xa;- Edad: Int&#xa;- Sexo: String&#xa;# Direccion: String&#xa;# Numero contacto: Int&#xa;+ Correo: String&#xa;- Nombre EPS: String&#xa;- Tipo RH: String&#xa;" style="text;strokeColor=none;fillColor=none;align=left;verticalAlign=top;spacingLeft=4;spacingRight=4;overflow=hidden;rotatable=0;points=[[0,0.5],[1,0.5]];portConstraint=eastwest;" vertex="1" parent="C3cM7KqL-mUrDPRyK2Mr-1">
          <mxGeometry y="26" width="160" height="204" as="geometry" />
        </mxCell>
        <mxCell id="C3cM7KqL-mUrDPRyK2Mr-3" value="" style="line;strokeWidth=1;fillColor=none;align=left;verticalAlign=middle;spacingTop=-1;spacingLeft=3;spacingRight=3;rotatable=0;labelPosition=right;points=[];portConstraint=eastwest;strokeColor=inherit;" vertex="1" parent="C3cM7KqL-mUrDPRyK2Mr-1">
          <mxGeometry y="230" width="160" height="8" as="geometry" />
        </mxCell>
        <mxCell id="C3cM7KqL-mUrDPRyK2Mr-4" value="Añadir ()&#xa;Cambiar estado ()&#xa;Modificar ()" style="text;strokeColor=none;fillColor=none;align=left;verticalAlign=top;spacingLeft=4;spacingRight=4;overflow=hidden;rotatable=0;points=[[0,0.5],[1,0.5]];portConstraint=eastwest;" vertex="1" parent="C3cM7KqL-mUrDPRyK2Mr-1">
          <mxGeometry y="238" width="160" height="52" as="geometry" />
        </mxCell>
        <mxCell id="C3cM7KqL-mUrDPRyK2Mr-5" value="CONSULTA" style="edgeStyle=orthogonalEdgeStyle;rounded=0;orthogonalLoop=1;jettySize=auto;html=1;entryX=0.5;entryY=0;entryDx=0;entryDy=0;endArrow=none;endFill=0;" edge="1" parent="1" source="nxkjfwWEvy5Os_rlGTME-4" target="C3cM7KqL-mUrDPRyK2Mr-1">
          <mxGeometry relative="1" as="geometry" />
        </mxCell>
        <mxCell id="C3cM7KqL-mUrDPRyK2Mr-6" value="TIENE" style="edgeStyle=orthogonalEdgeStyle;rounded=0;orthogonalLoop=1;jettySize=auto;html=1;exitX=1;exitY=0.5;exitDx=0;exitDy=0;entryX=0;entryY=0.5;entryDx=0;entryDy=0;endArrow=none;endFill=0;" edge="1" parent="1" source="F3Zivoe75PWThTTV405F-4" target="C3cM7KqL-mUrDPRyK2Mr-2">
          <mxGeometry x="-0.1369" relative="1" as="geometry">
            <Array as="points">
              <mxPoint x="-6591" y="-2500" />
              <mxPoint x="-6290" y="-2500" />
              <mxPoint x="-6290" y="-2271" />
            </Array>
            <mxPoint as="offset" />
          </mxGeometry>
        </mxCell>
        <mxCell id="C3cM7KqL-mUrDPRyK2Mr-11" value="PODER" style="edgeStyle=orthogonalEdgeStyle;rounded=0;orthogonalLoop=1;jettySize=auto;html=1;entryX=0;entryY=0.5;entryDx=0;entryDy=0;endArrow=classic;endFill=1;dashed=1;" edge="1" parent="1" source="C3cM7KqL-mUrDPRyK2Mr-7" target="C3cM7KqL-mUrDPRyK2Mr-4">
          <mxGeometry relative="1" as="geometry" />
        </mxCell>
        <mxCell id="C3cM7KqL-mUrDPRyK2Mr-7" value="TIPO USUARIO" style="swimlane;fontStyle=1;align=center;verticalAlign=top;childLayout=stackLayout;horizontal=1;startSize=26;horizontalStack=0;resizeParent=1;resizeParentMax=0;resizeLast=0;collapsible=1;marginBottom=0;" vertex="1" parent="1">
          <mxGeometry x="-6281" y="-2089" width="120" height="140" as="geometry">
            <mxRectangle x="80" y="80" width="100" height="30" as="alternateBounds" />
          </mxGeometry>
        </mxCell>
        <mxCell id="C3cM7KqL-mUrDPRyK2Mr-8" value="+ Codigo: Int&#xa;+Nombre: String" style="text;strokeColor=none;fillColor=none;align=left;verticalAlign=top;spacingLeft=4;spacingRight=4;overflow=hidden;rotatable=0;points=[[0,0.5],[1,0.5]];portConstraint=eastwest;" vertex="1" parent="C3cM7KqL-mUrDPRyK2Mr-7">
          <mxGeometry y="26" width="120" height="54" as="geometry" />
        </mxCell>
        <mxCell id="C3cM7KqL-mUrDPRyK2Mr-9" value="" style="line;strokeWidth=1;fillColor=none;align=left;verticalAlign=middle;spacingTop=-1;spacingLeft=3;spacingRight=3;rotatable=0;labelPosition=right;points=[];portConstraint=eastwest;strokeColor=inherit;" vertex="1" parent="C3cM7KqL-mUrDPRyK2Mr-7">
          <mxGeometry y="80" width="120" height="8" as="geometry" />
        </mxCell>
        <mxCell id="C3cM7KqL-mUrDPRyK2Mr-10" value="Añadir ()&#xa;Cambiar estado ()&#xa;Modificar ()" style="text;strokeColor=none;fillColor=none;align=left;verticalAlign=top;spacingLeft=4;spacingRight=4;overflow=hidden;rotatable=0;points=[[0,0.5],[1,0.5]];portConstraint=eastwest;" vertex="1" parent="C3cM7KqL-mUrDPRyK2Mr-7">
          <mxGeometry y="88" width="120" height="52" as="geometry" />
        </mxCell>
        <mxCell id="kMB_X2oL0L4vW_f1Jcbk-1" value="OBSERVACIONES CLINICAS" style="swimlane;fontStyle=1;align=center;verticalAlign=top;childLayout=stackLayout;horizontal=1;startSize=26;horizontalStack=0;resizeParent=1;resizeParentMax=0;resizeLast=0;collapsible=1;marginBottom=0;" vertex="1" parent="1">
          <mxGeometry x="-7051" y="-2369" width="180" height="110" as="geometry">
            <mxRectangle x="80" y="80" width="100" height="30" as="alternateBounds" />
          </mxGeometry>
        </mxCell>
        <mxCell id="kMB_X2oL0L4vW_f1Jcbk-2" value="+Codigo: Int&#xa;+Fecha ccreacion: date&#xa;+ Nombre alergia: String" style="text;strokeColor=none;fillColor=none;align=left;verticalAlign=top;spacingLeft=4;spacingRight=4;overflow=hidden;rotatable=0;points=[[0,0.5],[1,0.5]];portConstraint=eastwest;" vertex="1" parent="kMB_X2oL0L4vW_f1Jcbk-1">
          <mxGeometry y="26" width="180" height="54" as="geometry" />
        </mxCell>
        <mxCell id="kMB_X2oL0L4vW_f1Jcbk-3" value="" style="line;strokeWidth=1;fillColor=none;align=left;verticalAlign=middle;spacingTop=-1;spacingLeft=3;spacingRight=3;rotatable=0;labelPosition=right;points=[];portConstraint=eastwest;strokeColor=inherit;" vertex="1" parent="kMB_X2oL0L4vW_f1Jcbk-1">
          <mxGeometry y="80" width="180" height="8" as="geometry" />
        </mxCell>
        <mxCell id="kMB_X2oL0L4vW_f1Jcbk-4" value="Almacenar (informacion)" style="text;strokeColor=none;fillColor=none;align=left;verticalAlign=top;spacingLeft=4;spacingRight=4;overflow=hidden;rotatable=0;points=[[0,0.5],[1,0.5]];portConstraint=eastwest;" vertex="1" parent="kMB_X2oL0L4vW_f1Jcbk-1">
          <mxGeometry y="88" width="180" height="22" as="geometry" />
        </mxCell>
        <mxCell id="kMB_X2oL0L4vW_f1Jcbk-5" value="TIENE" style="edgeStyle=orthogonalEdgeStyle;rounded=0;orthogonalLoop=1;jettySize=auto;html=1;exitX=0;exitY=0.5;exitDx=0;exitDy=0;entryX=0.5;entryY=0;entryDx=0;entryDy=0;endArrow=none;endFill=0;" edge="1" parent="1" source="F3Zivoe75PWThTTV405F-4" target="kMB_X2oL0L4vW_f1Jcbk-1">
          <mxGeometry relative="1" as="geometry" />
        </mxCell>
        <mxCell id="t7RBmIncwdqZjGTzoup0-1" value="MEDICAMENTO" style="swimlane;fontStyle=1;align=center;verticalAlign=top;childLayout=stackLayout;horizontal=1;startSize=26;horizontalStack=0;resizeParent=1;resizeParentMax=0;resizeLast=0;collapsible=1;marginBottom=0;" vertex="1" parent="1">
          <mxGeometry x="-6681" y="-2159" width="180" height="160" as="geometry">
            <mxRectangle x="80" y="80" width="100" height="30" as="alternateBounds" />
          </mxGeometry>
        </mxCell>
        <mxCell id="t7RBmIncwdqZjGTzoup0-2" value="+ Codigo: Int&#xa;+ Nombre enfermedad: String&#xa;+Nombre medicamento: String&#xa;+ Como se toma: String&#xa;+ Para que sirve: String&#xa;+ Cada cuanto se toma: String&#xa;+ Como se prepara: String" style="text;strokeColor=none;fillColor=none;align=left;verticalAlign=top;spacingLeft=4;spacingRight=4;overflow=hidden;rotatable=0;points=[[0,0.5],[1,0.5]];portConstraint=eastwest;" vertex="1" parent="t7RBmIncwdqZjGTzoup0-1">
          <mxGeometry y="26" width="180" height="104" as="geometry" />
        </mxCell>
        <mxCell id="t7RBmIncwdqZjGTzoup0-3" value="" style="line;strokeWidth=1;fillColor=none;align=left;verticalAlign=middle;spacingTop=-1;spacingLeft=3;spacingRight=3;rotatable=0;labelPosition=right;points=[];portConstraint=eastwest;strokeColor=inherit;" vertex="1" parent="t7RBmIncwdqZjGTzoup0-1">
          <mxGeometry y="130" width="180" height="8" as="geometry" />
        </mxCell>
        <mxCell id="t7RBmIncwdqZjGTzoup0-4" value="Almacenar (informacion)" style="text;strokeColor=none;fillColor=none;align=left;verticalAlign=top;spacingLeft=4;spacingRight=4;overflow=hidden;rotatable=0;points=[[0,0.5],[1,0.5]];portConstraint=eastwest;" vertex="1" parent="t7RBmIncwdqZjGTzoup0-1">
          <mxGeometry y="138" width="180" height="22" as="geometry" />
        </mxCell>
        <mxCell id="t7RBmIncwdqZjGTzoup0-5" value="REGISTRA" style="edgeStyle=orthogonalEdgeStyle;rounded=0;orthogonalLoop=1;jettySize=auto;html=1;exitX=1;exitY=0.5;exitDx=0;exitDy=0;entryX=0.5;entryY=0;entryDx=0;entryDy=0;endArrow=none;endFill=0;dashed=1;startArrow=classic;startFill=1;" edge="1" parent="1" source="kMB_X2oL0L4vW_f1Jcbk-2" target="t7RBmIncwdqZjGTzoup0-1">
          <mxGeometry relative="1" as="geometry" />
        </mxCell>
        <mxCell id="AuZE4GjlS4lNQEjdvPPH-1" value="SOLICITUD CUPOS" style="swimlane;fontStyle=1;align=center;verticalAlign=top;childLayout=stackLayout;horizontal=1;startSize=26;horizontalStack=0;resizeParent=1;resizeParentMax=0;resizeLast=0;collapsible=1;marginBottom=0;" vertex="1" parent="1">
          <mxGeometry x="-5420" y="-2731" width="220" height="410" as="geometry">
            <mxRectangle x="80" y="80" width="100" height="30" as="alternateBounds" />
          </mxGeometry>
        </mxCell>
        <mxCell id="AuZE4GjlS4lNQEjdvPPH-2" value="+ Codigo: Int&#xa;+ Fecha solicitud: Date&#xa;# Identificación estudiante: Int&#xa;+ Nombres estudiante: String&#xa;+ Primer apellido estudiante: String&#xa;+ Segundo apellido estudiante: String&#xa;+ Fecha nacimiento estudiante: Int&#xa;+ Edad estudiante: Int&#xa;# Sexo estudiante: String&#xa;- Nombre EPS estudiante: String&#xa;+ Tipo RH estudiante: String&#xa;# Id_acudiente: Int&#xa;# Nombres acudiente: String&#xa;# Primer Apellido acudiente: String&#xa;# Segundo apellido acudiente: String&#xa;# Fecha nacimiento acudiente: Int&#xa;# Edad acudiente: Int&#xa;# Parentesco: String&#xa;# Sexo acudiente: String&#xa;# Número de contacto: Int&#xa;# Dirección: String&#xa;# Correo acudiente: String&#xa;" style="text;strokeColor=none;fillColor=none;align=left;verticalAlign=top;spacingLeft=4;spacingRight=4;overflow=hidden;rotatable=0;points=[[0,0.5],[1,0.5]];portConstraint=eastwest;" vertex="1" parent="AuZE4GjlS4lNQEjdvPPH-1">
          <mxGeometry y="26" width="220" height="344" as="geometry" />
        </mxCell>
        <mxCell id="AuZE4GjlS4lNQEjdvPPH-3" value="" style="line;strokeWidth=1;fillColor=none;align=left;verticalAlign=middle;spacingTop=-1;spacingLeft=3;spacingRight=3;rotatable=0;labelPosition=right;points=[];portConstraint=eastwest;strokeColor=inherit;" vertex="1" parent="AuZE4GjlS4lNQEjdvPPH-1">
          <mxGeometry y="370" width="220" height="8" as="geometry" />
        </mxCell>
        <mxCell id="AuZE4GjlS4lNQEjdvPPH-4" value="Almacenar (datos)" style="text;strokeColor=none;fillColor=none;align=left;verticalAlign=top;spacingLeft=4;spacingRight=4;overflow=hidden;rotatable=0;points=[[0,0.5],[1,0.5]];portConstraint=eastwest;" vertex="1" parent="AuZE4GjlS4lNQEjdvPPH-1">
          <mxGeometry y="378" width="220" height="32" as="geometry" />
        </mxCell>
        <mxCell id="AuZE4GjlS4lNQEjdvPPH-5" value="ALMACENA" style="edgeStyle=orthogonalEdgeStyle;rounded=0;orthogonalLoop=1;jettySize=auto;html=1;exitX=1;exitY=0.5;exitDx=0;exitDy=0;entryX=-0.011;entryY=0.11;entryDx=0;entryDy=0;entryPerimeter=0;endArrow=classic;endFill=1;" edge="1" parent="1" source="nxkjfwWEvy5Os_rlGTME-2" target="AuZE4GjlS4lNQEjdvPPH-2">
          <mxGeometry relative="1" as="geometry" />
        </mxCell>
        <mxCell id="_lsucv73arTyhr5jiUFq-1" value="CITACION" style="swimlane;fontStyle=1;align=center;verticalAlign=top;childLayout=stackLayout;horizontal=1;startSize=26;horizontalStack=0;resizeParent=1;resizeParentMax=0;resizeLast=0;collapsible=1;marginBottom=0;" vertex="1" parent="1">
          <mxGeometry x="-5470" y="-2040" width="170" height="230" as="geometry">
            <mxRectangle x="80" y="80" width="100" height="30" as="alternateBounds" />
          </mxGeometry>
        </mxCell>
        <mxCell id="_lsucv73arTyhr5jiUFq-2" value="#Codigo: Int&#xa;# Fecha solicitud: Date&#xa;# Titulo: String&#xa;# Hora: Int &#xa;# Fecha: Date&#xa;# Lugar: String&#xa;# Motivo: String" style="text;strokeColor=none;fillColor=none;align=left;verticalAlign=top;spacingLeft=4;spacingRight=4;overflow=hidden;rotatable=0;points=[[0,0.5],[1,0.5]];portConstraint=eastwest;" vertex="1" parent="_lsucv73arTyhr5jiUFq-1">
          <mxGeometry y="26" width="170" height="124" as="geometry" />
        </mxCell>
        <mxCell id="_lsucv73arTyhr5jiUFq-3" value="" style="line;strokeWidth=1;fillColor=none;align=left;verticalAlign=middle;spacingTop=-1;spacingLeft=3;spacingRight=3;rotatable=0;labelPosition=right;points=[];portConstraint=eastwest;strokeColor=inherit;" vertex="1" parent="_lsucv73arTyhr5jiUFq-1">
          <mxGeometry y="150" width="170" height="8" as="geometry" />
        </mxCell>
        <mxCell id="_lsucv73arTyhr5jiUFq-4" value="Añadir()&#xa;Eliminar()&#xa;Modificar()&#xa;Almacenar (datos)" style="text;strokeColor=none;fillColor=none;align=left;verticalAlign=top;spacingLeft=4;spacingRight=4;overflow=hidden;rotatable=0;points=[[0,0.5],[1,0.5]];portConstraint=eastwest;" vertex="1" parent="_lsucv73arTyhr5jiUFq-1">
          <mxGeometry y="158" width="170" height="72" as="geometry" />
        </mxCell>
        <mxCell id="_lsucv73arTyhr5jiUFq-9" value="AGENDA" style="edgeStyle=orthogonalEdgeStyle;rounded=0;orthogonalLoop=1;jettySize=auto;html=1;exitX=1;exitY=0.5;exitDx=0;exitDy=0;entryX=0;entryY=0.5;entryDx=0;entryDy=0;endArrow=none;endFill=0;" edge="1" parent="1" source="C3cM7KqL-mUrDPRyK2Mr-4" target="_lsucv73arTyhr5jiUFq-1">
          <mxGeometry relative="1" as="geometry" />
        </mxCell>
        <mxCell id="JVbjVC3dFaAWJp_s11rE-1" value="" style="rhombus;whiteSpace=wrap;html=1;fontSize=15;rotation=-180;" vertex="1" parent="1">
          <mxGeometry x="-5505" y="-1935" width="35" height="20" as="geometry" />
        </mxCell>
        <mxCell id="TFBeeGQMDxn7Z-lj8cHA-1" value="" style="rhombus;whiteSpace=wrap;html=1;fontSize=15;rotation=-180;" vertex="1" parent="1">
          <mxGeometry x="-6817" y="-2515" width="35" height="20" as="geometry" />
        </mxCell>
        <mxCell id="ncZxXREKrwv6gbfX2uks-2" value="&lt;b&gt;&lt;font style=&quot;font-size: 14px;&quot;&gt;1&lt;/font&gt;&lt;/b&gt;" style="text;html=1;strokeColor=none;fillColor=none;align=center;verticalAlign=middle;whiteSpace=wrap;rounded=0;" vertex="1" parent="1">
          <mxGeometry x="-6871" y="-2318" width="30" height="20" as="geometry" />
        </mxCell>
        <mxCell id="ncZxXREKrwv6gbfX2uks-4" value="&lt;b&gt;&lt;font style=&quot;font-size: 14px;&quot;&gt;1..*&lt;/font&gt;&lt;/b&gt;" style="text;html=1;strokeColor=none;fillColor=none;align=center;verticalAlign=middle;whiteSpace=wrap;rounded=0;" vertex="1" parent="1">
          <mxGeometry x="-6621" y="-2179" width="30" height="20" as="geometry" />
        </mxCell>
        <mxCell id="ncZxXREKrwv6gbfX2uks-6" value="&lt;b&gt;&lt;font style=&quot;font-size: 14px;&quot;&gt;1&lt;/font&gt;&lt;/b&gt;" style="text;html=1;strokeColor=none;fillColor=none;align=center;verticalAlign=middle;whiteSpace=wrap;rounded=0;" vertex="1" parent="1">
          <mxGeometry x="-7000" y="-2387" width="30" height="20" as="geometry" />
        </mxCell>
        <mxCell id="ncZxXREKrwv6gbfX2uks-8" value="&lt;b&gt;&lt;font style=&quot;font-size: 14px;&quot;&gt;1&lt;/font&gt;&lt;/b&gt;" style="text;html=1;strokeColor=none;fillColor=none;align=center;verticalAlign=middle;whiteSpace=wrap;rounded=0;" vertex="1" parent="1">
          <mxGeometry x="-6810" y="-2535" width="30" height="20" as="geometry" />
        </mxCell>
        <mxCell id="ncZxXREKrwv6gbfX2uks-9" value="&lt;b&gt;&lt;font style=&quot;font-size: 14px;&quot;&gt;1..*&lt;/font&gt;&lt;/b&gt;" style="text;html=1;strokeColor=none;fillColor=none;align=center;verticalAlign=middle;whiteSpace=wrap;rounded=0;" vertex="1" parent="1">
          <mxGeometry x="-6591" y="-2669" width="30" height="20" as="geometry" />
        </mxCell>
        <mxCell id="ncZxXREKrwv6gbfX2uks-10" value="&lt;b&gt;&lt;font style=&quot;font-size: 14px;&quot;&gt;1&lt;/font&gt;&lt;/b&gt;" style="text;html=1;strokeColor=none;fillColor=none;align=center;verticalAlign=middle;whiteSpace=wrap;rounded=0;" vertex="1" parent="1">
          <mxGeometry x="-6211" y="-2663" width="30" height="20" as="geometry" />
        </mxCell>
        <mxCell id="OzFmp2eoHGva56DwZylS-1" value="&lt;b&gt;&lt;font style=&quot;font-size: 14px;&quot;&gt;1..*&lt;/font&gt;&lt;/b&gt;" style="text;html=1;strokeColor=none;fillColor=none;align=center;verticalAlign=middle;whiteSpace=wrap;rounded=0;" vertex="1" parent="1">
          <mxGeometry x="-5889" y="-2160" width="30" height="20" as="geometry" />
        </mxCell>
        <mxCell id="OzFmp2eoHGva56DwZylS-2" value="&lt;b&gt;&lt;font style=&quot;font-size: 14px;&quot;&gt;1&lt;/font&gt;&lt;/b&gt;" style="text;html=1;strokeColor=none;fillColor=none;align=center;verticalAlign=middle;whiteSpace=wrap;rounded=0;" vertex="1" parent="1">
          <mxGeometry x="-6251" y="-2110" width="30" height="20" as="geometry" />
        </mxCell>
        <mxCell id="OzFmp2eoHGva56DwZylS-3" value="&lt;b&gt;&lt;font style=&quot;font-size: 14px;&quot;&gt;1&lt;/font&gt;&lt;/b&gt;" style="text;html=1;strokeColor=none;fillColor=none;align=center;verticalAlign=middle;whiteSpace=wrap;rounded=0;" vertex="1" parent="1">
          <mxGeometry x="-5701" y="-2155" width="30" height="20" as="geometry" />
        </mxCell>
        <mxCell id="OzFmp2eoHGva56DwZylS-4" value="&lt;b&gt;&lt;font style=&quot;font-size: 14px;&quot;&gt;1..*&lt;/font&gt;&lt;/b&gt;" style="text;html=1;strokeColor=none;fillColor=none;align=center;verticalAlign=middle;whiteSpace=wrap;rounded=0;" vertex="1" parent="1">
          <mxGeometry x="-5499" y="-1956" width="30" height="20" as="geometry" />
        </mxCell>
        <mxCell id="LU8euL4xrcxdhV-fmoQ3-1" value="&lt;b&gt;&lt;font style=&quot;font-size: 14px;&quot;&gt;1..*&lt;/font&gt;&lt;/b&gt;" style="text;html=1;strokeColor=none;fillColor=none;align=center;verticalAlign=middle;whiteSpace=wrap;rounded=0;" vertex="1" parent="1">
          <mxGeometry x="-6040" y="-2607" width="30" height="20" as="geometry" />
        </mxCell>
        <mxCell id="LU8euL4xrcxdhV-fmoQ3-2" value="&lt;b&gt;&lt;font style=&quot;font-size: 14px;&quot;&gt;1&lt;/font&gt;&lt;/b&gt;" style="text;html=1;strokeColor=none;fillColor=none;align=center;verticalAlign=middle;whiteSpace=wrap;rounded=0;" vertex="1" parent="1">
          <mxGeometry x="-5781" y="-2419" width="30" height="20" as="geometry" />
        </mxCell>
        <mxCell id="LU8euL4xrcxdhV-fmoQ3-3" value="REALIZA" style="edgeStyle=orthogonalEdgeStyle;rounded=0;orthogonalLoop=1;jettySize=auto;html=1;exitX=1;exitY=0.5;exitDx=0;exitDy=0;entryX=-0.018;entryY=0.541;entryDx=0;entryDy=0;entryPerimeter=0;" edge="1" parent="1" source="C3cM7KqL-mUrDPRyK2Mr-2" target="AuZE4GjlS4lNQEjdvPPH-2">
          <mxGeometry relative="1" as="geometry" />
        </mxCell>
        <mxCell id="9KikZBxjQxhen17uqDCo-1" value="&lt;b&gt;&lt;font style=&quot;font-size: 14px;&quot;&gt;1..*&lt;/font&gt;&lt;/b&gt;" style="text;html=1;strokeColor=none;fillColor=none;align=center;verticalAlign=middle;whiteSpace=wrap;rounded=0;" vertex="1" parent="1">
          <mxGeometry x="-6591" y="-2519" width="30" height="20" as="geometry" />
        </mxCell>
        <mxCell id="9KikZBxjQxhen17uqDCo-2" value="&lt;b&gt;&lt;font style=&quot;font-size: 14px;&quot;&gt;1&lt;/font&gt;&lt;/b&gt;" style="text;html=1;strokeColor=none;fillColor=none;align=center;verticalAlign=middle;whiteSpace=wrap;rounded=0;" vertex="1" parent="1">
          <mxGeometry x="-5892" y="-2290" width="30" height="20" as="geometry" />
        </mxCell>
        <mxCell id="9KikZBxjQxhen17uqDCo-3" value="&lt;b&gt;&lt;font style=&quot;font-size: 14px;&quot;&gt;1..*&lt;/font&gt;&lt;/b&gt;" style="text;html=1;strokeColor=none;fillColor=none;align=center;verticalAlign=middle;whiteSpace=wrap;rounded=0;" vertex="1" parent="1">
          <mxGeometry x="-5451" y="-2541" width="30" height="20" as="geometry" />
        </mxCell>
        <mxCell id="9KikZBxjQxhen17uqDCo-4" value="&lt;b&gt;&lt;font style=&quot;font-size: 14px;&quot;&gt;1&lt;/font&gt;&lt;/b&gt;" style="text;html=1;strokeColor=none;fillColor=none;align=center;verticalAlign=middle;whiteSpace=wrap;rounded=0;" vertex="1" parent="1">
          <mxGeometry x="-5700" y="-2291" width="30" height="20" as="geometry" />
        </mxCell>
        <mxCell id="9KikZBxjQxhen17uqDCo-5" value="&lt;b&gt;&lt;font style=&quot;font-size: 14px;&quot;&gt;1&lt;/font&gt;&lt;/b&gt;" style="text;html=1;strokeColor=none;fillColor=none;align=center;verticalAlign=middle;whiteSpace=wrap;rounded=0;" vertex="1" parent="1">
          <mxGeometry x="-6042" y="-2689" width="30" height="20" as="geometry" />
        </mxCell>
        <mxCell id="9KikZBxjQxhen17uqDCo-6" value="&lt;b&gt;&lt;font style=&quot;font-size: 14px;&quot;&gt;1&lt;/font&gt;&lt;/b&gt;" style="text;html=1;strokeColor=none;fillColor=none;align=center;verticalAlign=middle;whiteSpace=wrap;rounded=0;" vertex="1" parent="1">
          <mxGeometry x="-5446" y="-2689" width="30" height="20" as="geometry" />
        </mxCell>
      </root>
    </mxGraphModel>
  </diagram>
</mxfile>
